/* XPM */
static char * hw_xpm[] = {
"16 128 3 1",
" 	c None",
".	c #FFFFFF",
"+	c #000000",
"...............+",
"................",
"................",
"................",
"................",
"................",
"................",
"................",
"................",
"................",
"................",
"................",
"..++++++++++....",
".......+........",
".......+........",
".......+........",
".......+........",
".......+........",
"..++++++++++....",
"................",
"................",
"...+++++........",
"..+..+..+.......",
"..+..+..+.......",
"..+..+..+.......",
"..+..+..+.......",
"..+..+..+.......",
"...+.+++........",
"................",
"................",
"................",
"..+........+....",
"..+........+....",
"..++++++++++....",
"..+.............",
"..+.............",
"................",
"................",
"................",
"................",
"..+........+....",
"..+........+....",
"..++++++++++....",
"..+.............",
"..+.............",
"................",
"................",
"................",
"...+++++........",
"..+.....+.......",
"..+.....+.......",
"..+.....+.......",
"..+.....+.......",
"..+.....+.......",
"...+++++........",
"................",
"................",
"................",
"................",
"................",
"................",
"................",
"................",
"................",
"................",
"................",
"...++++++.......",
"..+.............",
"...+............",
"....+++.........",
"...+............",
"..+.............",
"...++++++.......",
"................",
"................",
"...+++++........",
"..+.....+.......",
"..+.....+.......",
"..+.....+.......",
"..+.....+.......",
"..+.....+.......",
"...+++++........",
"................",
"................",
"........+.......",
"..++++++........",
".......+........",
"........+.......",
"........+.......",
"........+.......",
"......++........",
"................",
"................",
"................",
"..+........+....",
"..+........+....",
"..++++++++++....",
"..+.............",
"..+.............",
"................",
"................",
"................",
"...+++++........",
"..+.....+.......",
"..+.....+.......",
"..+.....+.......",
"..+.....+.......",
"...+...+........",
"..++++++++++....",
"................",
"................",
"................",
"................",
"................",
"..++..+++++++...",
"................",
"................",
"................",
"................",
"................",
"................",
"................",
"................",
"................",
"................",
"................",
"................",
"...............+"};
